<!-- assets/img/roulette.svg -->
<svg xmlns="http://www.w3.org/2000/svg" width="180" height="180" viewBox="0 0 180 180">
  <circle cx="90" cy="90" r="80" fill="#111" stroke="#FFD166" stroke-width="4"/>
  <g transform="translate(90,90)">
    <g fill="#FF6B6B">
      <path d="M0 0 L0 -70 A70 70 0 0 1 24.1 -65.8 Z"/>
      <path d="M0 0 L65.8 -24.1 A70 70 0 0 1 70 0 Z"/>
      <path d="M0 0 L24.1 65.8 A70 70 0 0 1 0 70 Z"/>
      <path d="M0 0 L-65.8 24.1 A70 70 0 0 1 -70 0 Z"/>
      <path d="M0 0 L-24.1 -65.8 A70 70 0 0 1 0 -70 Z"/>
    </g>
    <circle r="10" fill="#00F7FF"/>
  </g>
</svg>